# xmcd
#
# Track frame offsets: 
#        150
#        15515
#        30230
#        42270
#        62727
#        75622
#        94390
#        122017
#        135562
#        149935
#        169885
#        182710
#
# Disc length: 2641 seconds
#
# Revision: 4
# Processed by: cddbd v1.5.2PL0 Copyright (c) Steve Scherf et al.
# Submitted via: ExactAudioCopy v0.99pb5
#
DISCID=a20a4f0c
DTITLE=Scott Walker - Scott 2
DYEAR=1900
DGENRE=
TTITLE0=Jackie
TTITLE1=Best Of Both Worlds
TTITLE2=Black Sheep Boy
TTITLE3=The Amorous Humphrey Plugg
TTITLE4=Next
TTITLE5=The Girls From The Streets
TTITLE6=Plastic Palace People
TTITLE7=Wait Until Dark
TTITLE8=The Girls And The Dogs
TTITLE9=Windows Of The World
TTITLE10=The Bridge
TTITLE11=Come Next Spring
EXTD=
EXTT0=
EXTT1=
EXTT2=
EXTT3=
EXTT4=
EXTT5=
EXTT6=
EXTT7=
EXTT8=
EXTT9=
EXTT10=
EXTT11=
PLAYORDER=
